<svg xmlns="http://www.w3.org/2000/svg" viewBox="0 0 512 512" width="512" height="512">
  <defs>
    <linearGradient id="grad1" x1="0%" y1="0%" x2="100%" y2="100%">
      <stop offset="0%" style="stop-color:#2563eb;stop-opacity:1" />
      <stop offset="100%" style="stop-color:#1d4ed8;stop-opacity:1" />
    </linearGradient>
  </defs>
  
  <!-- Background Circle -->
  <circle cx="256" cy="256" r="240" fill="url(#grad1)" stroke="#1e40af" stroke-width="8"/>
  
  <!-- Dollar Sign -->
  <g fill="white" stroke="white" stroke-width="2">
    <!-- Vertical line -->
    <rect x="246" y="120" width="20" height="272" rx="10"/>
    
    <!-- Top curve -->
    <path d="M 180 180 Q 180 140 220 140 L 292 140 Q 332 140 332 180 Q 332 200 312 210" 
          fill="none" stroke="white" stroke-width="24" stroke-linecap="round"/>
    
    <!-- Bottom curve -->
    <path d="M 200 302 Q 180 322 180 342 Q 180 382 220 382 L 292 382 Q 332 382 332 342 Q 332 322 312 302" 
          fill="none" stroke="white" stroke-width="24" stroke-linecap="round"/>
    
    <!-- Middle line -->
    <line x1="200" y1="256" x2="312" y2="256" stroke="white" stroke-width="24" stroke-linecap="round"/>
  </g>
  
  <!-- Decorative elements -->
  <circle cx="150" cy="150" r="8" fill="rgba(255,255,255,0.3)"/>
  <circle cx="380" cy="160" r="6" fill="rgba(255,255,255,0.3)"/>
  <circle cx="140" cy="380" r="10" fill="rgba(255,255,255,0.3)"/>
  <circle cx="390" cy="370" r="7" fill="rgba(255,255,255,0.3)"/>
</svg> 